<svg xmlns="http://www.w3.org/2000/svg" width="90" height="60" viewBox="195 185 400 400" version="1.1" className='flex justify-center hover:cursor-pointer hover:text-black hover:bg-white transition-all duration-200 rounded-3xl pr-2'>
	<title>Volver a la página anterior</title>
	<path d="M 463.655 244.597 C 415.836 253.236, 377.973 291.525, 369.532 339.778 C 368.238 347.174, 368.006 362.597, 368.003 441.250 L 368 534 484.500 534 L 601 534 601 440.407 C 601 350.297, 600.924 346.444, 598.970 336.855 C 589.200 288.912, 552.362 252.874, 504.615 244.548 C 493.734 242.650, 474.300 242.674, 463.655 244.597 M 465 257.492 C 431.515 264.208, 403.266 286.801, 389.673 317.738 C 387.682 322.269, 385.050 329.469, 383.825 333.738 C 381.607 341.464, 381.595 341.916, 381.263 431.250 L 380.929 521 484.500 521 L 588.071 521 587.777 430.750 L 587.483 340.500 584.736 331.716 C 578.678 312.344, 570.080 298.183, 556.331 284.928 C 541.696 270.820, 524.998 261.939, 505.500 257.894 C 494.860 255.686, 474.986 255.489, 465 257.492 M 288.500 258.236 C 276.961 262.383, 269.521 273.313, 266.948 289.897 C 264.419 306.196, 270.884 324.200, 281.200 329.589 C 285.233 331.696, 287.886 331.345, 289.166 328.534 C 290.359 325.918, 290.183 325.608, 282.040 316 C 278.185 311.450, 275.588 301.481, 276.278 293.874 C 276.888 287.146, 281.107 277.230, 284.909 273.587 C 286.408 272.151, 290.079 269.744, 293.067 268.238 C 297.565 265.971, 298.558 264.991, 298.836 262.549 C 299.400 257.596, 295.180 255.835, 288.500 258.236 M 304.250 260.662 C 301.897 261.612, 302.854 267.928, 306.056 272.581 C 310.883 279.598, 312 283.233, 312 291.933 C 312 300.785, 310.823 305.127, 304.895 318.134 C 301.621 325.320, 301.128 327.206, 301.956 329.384 C 303.531 333.526, 307.339 332.896, 310.962 327.894 C 319.701 315.829, 324.437 291.414, 320.545 278.483 C 318.700 272.352, 312.522 263.321, 308.888 261.442 C 307.354 260.649, 305.964 260.036, 305.800 260.079 C 305.635 260.122, 304.938 260.385, 304.250 260.662 M 287.506 288.990 C 287.170 289.534, 286.821 291.836, 286.730 294.105 C 286.486 300.229, 289.063 301.950, 297.764 301.474 C 303.536 301.158, 304.822 300.732, 306.750 298.497 C 309.034 295.849, 309.869 289.655, 308.090 288.556 C 306.628 287.652, 304.127 289.025, 303.471 291.092 C 302.637 293.718, 301.176 293.481, 299.818 290.500 C 298.444 287.485, 296.461 287.288, 294.768 290 C 294.081 291.100, 293.207 292, 292.827 292 C 292.446 292, 291.849 291.100, 291.500 290 C 290.831 287.893, 288.542 287.314, 287.506 288.990 M 288.211 311.250 C 286.697 313.081, 287.921 317.831, 290.345 319.529 C 293.132 321.481, 298.457 321.400, 300.483 319.374 C 301.382 318.475, 301.973 316.576, 301.804 315.124 C 301.524 312.710, 301.175 312.525, 297.429 312.818 C 294.645 313.036, 292.947 312.641, 292.057 311.568 C 290.484 309.673, 289.577 309.598, 288.211 311.250 M 413.457 322.135 C 412.473 325.236, 413.872 343.712, 416.086 356.844 C 417.990 368.138, 417.989 368.198, 415.994 370.735 C 413.397 374.037, 414.864 376, 419.928 376 C 424.314 376, 428.703 373.033, 434.253 366.317 C 440.777 358.422, 442.610 353.080, 440.942 346.823 C 439.008 339.565, 429.883 335.505, 424.559 339.532 C 423.491 340.339, 422.309 341, 421.931 341 C 421.554 341, 421.053 336.990, 420.819 332.089 C 420.565 326.776, 419.860 322.536, 419.074 321.589 C 417.203 319.334, 414.255 319.621, 413.457 322.135 M 521.453 326.076 C 520.722 327.260, 520.996 329.952, 524.596 356.865 C 525.947 366.965, 527.521 376.105, 528.094 377.175 C 528.744 378.391, 529.955 379.005, 531.318 378.811 C 533.184 378.545, 533.572 377.705, 534 373 C 534.432 368.251, 534.805 367.457, 536.736 367.182 C 537.965 367.008, 542.441 368.438, 546.683 370.362 C 552.459 372.981, 554.848 373.617, 556.198 372.894 C 559.582 371.083, 558.460 369.570, 548.427 362.411 C 544.892 359.888, 542 357.267, 542 356.587 C 542 355.009, 545.333 351.971, 550.750 348.611 C 553.440 346.942, 555 345.245, 555 343.987 C 555 340.779, 549.937 341.507, 541 346 C 536.624 348.200, 532.667 350, 532.206 350 C 531.745 350, 530.658 345.251, 529.791 339.447 C 528.761 332.555, 527.603 328.218, 526.452 326.947 C 524.498 324.788, 522.468 324.434, 521.453 326.076 M 463.275 332.066 C 459.497 332.852, 456.318 334.814, 450.918 339.693 C 443.876 346.055, 446.813 350.298, 455.052 345.666 C 460.105 342.826, 464.835 342.235, 466.800 344.200 C 467.460 344.860, 468 347.290, 468 349.601 L 468 353.802 463.076 353.651 C 457.482 353.479, 454.014 355.478, 450.162 361.092 C 447.364 365.169, 447.617 372.061, 450.676 375.121 C 454.436 378.880, 458.081 379.047, 466.118 375.828 C 470.178 374.201, 473.928 372.450, 474.450 371.935 C 474.973 371.421, 476.162 371, 477.093 371 C 478.024 371, 479.058 370.292, 479.389 369.428 C 479.967 367.922, 478.507 364.049, 476.966 363 C 476.562 362.725, 475.782 356.519, 475.233 349.208 C 474.481 339.212, 473.818 335.456, 472.557 334.063 C 470.518 331.810, 467.562 331.174, 463.275 332.066 M 493.389 341.905 C 486.346 346.199, 482.308 357.268, 485.104 364.614 C 488.305 373.025, 496.961 375.161, 507.500 370.140 C 514.359 366.873, 517.335 364.037, 516.417 361.645 C 515.565 359.424, 514.133 359.565, 507.849 362.490 C 498.148 367.006, 492 365.209, 492 357.858 C 492 353.839, 495.517 349.933, 500.689 348.210 C 503.206 347.371, 504.126 347.447, 505.061 348.573 C 507.634 351.674, 510.622 349.616, 509.580 345.461 C 508.311 340.406, 499.148 338.393, 493.389 341.905 M 280.425 345.883 C 277.402 347.726, 255.323 367.754, 249.559 373.882 L 246.617 377.009 248.450 396.754 C 249.457 407.614, 250.784 417.625, 251.398 419 C 252.743 422.010, 257.050 422.850, 259.013 420.485 C 260.126 419.143, 260.142 416.291, 259.106 403.684 C 258.420 395.333, 257.620 387.066, 257.330 385.313 C 256.875 382.571, 257.428 381.456, 261.305 377.312 C 263.783 374.663, 270.803 368.222, 276.906 362.998 C 284.634 356.383, 288.332 352.502, 289.091 350.211 C 291.041 344.327, 286.608 342.112, 280.425 345.883 M 293.931 349.129 C 293.119 350.645, 292.992 356.767, 293.488 370.379 C 294.140 388.283, 294.016 390.498, 291.528 405.177 C 288.385 423.717, 288.440 428.350, 291.805 428.827 C 294.879 429.262, 296.748 427.548, 298.003 423.142 C 300.347 414.917, 304.175 389.995, 304.170 383 C 304.161 371.377, 302.106 353.105, 300.446 349.895 C 298.670 346.461, 295.555 346.094, 293.931 349.129 M 427.642 348.871 C 424.806 349.986, 423.440 353.430, 423.840 358.454 C 424.291 364.125, 425.649 364.237, 430.384 358.997 C 434.419 354.530, 435.075 350.646, 432.066 349.035 C 431.002 348.466, 429.989 348.032, 429.816 348.070 C 429.642 348.109, 428.664 348.469, 427.642 348.871 M 456.975 366.047 C 455.249 369.271, 457.084 370.622, 460.991 369.004 C 464.766 367.440, 464.660 364.636, 460.809 364.190 C 458.892 363.968, 457.806 364.494, 456.975 366.047 M 307.950 388.560 C 306.076 390.819, 307.827 394.967, 311.780 397.631 C 316.632 400.900, 343.313 412, 346.320 412 C 349.392 412, 351.443 408.903, 350.599 405.538 C 349.922 402.839, 341.850 398.394, 325.291 391.599 C 313.288 386.675, 309.994 386.097, 307.950 388.560 M 513.500 397.417 C 507.158 400.248, 503 406.814, 503 414 C 503 419.011, 504.475 422.802, 507.814 426.373 C 512.665 431.562, 515.031 432, 538.233 432 C 557.068 432, 559.931 431.785, 562.991 430.145 C 573.472 424.523, 576.270 410.933, 568.716 402.330 C 563.500 396.389, 561.565 395.995, 537.782 396.039 C 522.234 396.068, 515.692 396.439, 513.500 397.417 M 288.891 433.001 C 287.148 434.020, 279.989 446.147, 272.642 460.525 C 267.719 470.158, 260.269 479.546, 243.347 497.441 C 230.143 511.402, 229.910 513.734, 240.672 524.193 C 246.152 529.520, 249.759 531.274, 252.303 529.851 C 255.433 528.099, 254.351 523.607, 249.500 518.211 C 247.025 515.458, 245 512.881, 245 512.484 C 245 512.086, 248.888 507.676, 253.639 502.683 C 269.670 485.837, 274.354 479.647, 281.917 465.317 C 285.927 457.718, 289.645 451.050, 290.179 450.500 C 290.819 449.841, 291.977 450.522, 293.578 452.500 C 297.059 456.802, 310.392 483.277, 320.520 506 C 325.300 516.725, 329.708 526.110, 330.316 526.856 C 332.365 529.370, 339.366 527.602, 347.539 522.508 C 355.534 517.525, 355.944 517.060, 356.287 512.574 C 356.682 507.398, 354.136 507.206, 344.760 511.704 L 336.304 515.762 329.523 500.631 C 315.216 468.707, 299.818 439.818, 294.018 434.018 C 291.763 431.763, 291.200 431.652, 288.891 433.001" stroke="none" fill="currentColor" fill-rule="evenodd"/>
</svg>