<svg xmlns="http://www.w3.org/2000/svg" width="500" height="400" viewBox="185 185 500 370" version="1.1">
	<path d="M 245.140 261.678 C 239.347 267.709, 234.789 276.217, 231.821 286.535 C 228.415 298.376, 228.629 315.392, 232.326 326.609 C 237.776 343.149, 247.503 352.977, 253.497 348.003 C 256.224 345.739, 255.224 341.758, 250.479 335.993 C 244.934 329.256, 242.342 324.074, 241.015 317.079 C 238.101 301.714, 241.197 288.886, 252.498 269.500 C 254.421 266.200, 256.293 262.876, 256.657 262.114 C 257.667 259.998, 255.617 257.538, 252.540 257.173 C 250.336 256.912, 248.847 257.818, 245.140 261.678 M 270.750 258.080 C 266.828 260.365, 269.828 267.012, 277.825 273.756 C 284.055 279.009, 286 283.118, 286 291.025 C 286 299.649, 281.877 319.132, 276.947 333.808 C 272.594 346.766, 272.412 350.361, 276.051 351.516 C 279.365 352.568, 282.650 349.552, 284.984 343.314 C 294.273 318.485, 298.457 288.963, 294.577 275.618 C 292.567 268.702, 286.969 262.146, 280.465 259.089 C 275.556 256.781, 273.370 256.554, 270.750 258.080 M 503 272.500 L 503 280 499 280 L 495 280 495 312 C 495 333.497, 495.342 344, 496.040 344 C 497.694 344, 503 348.254, 503 349.579 C 503 351.863, 510.760 354, 519.052 354 C 528.524 354, 532.753 352.489, 537.081 347.560 C 538.800 345.602, 540.836 344, 541.604 344 C 542.770 344, 543 338.723, 543 312 L 543 280 539 280 L 535 280 535 272.500 L 535 265 519 265 L 503 265 503 272.500 M 436.384 279.440 C 435.746 281.105, 443.441 341.859, 445.098 348.233 C 446.149 352.279, 448.976 354.460, 451.945 353.517 C 454.580 352.681, 454.877 351.311, 454.086 343.662 C 452.993 333.101, 454.701 332.785, 468.500 341 C 478.595 347.010, 480.042 347.427, 484.427 345.595 C 491.045 342.830, 489.171 340.183, 472.819 329.194 C 468.594 326.355, 464.873 323.604, 464.550 323.081 C 463.871 321.982, 468.709 318.143, 474.500 315.186 C 481.537 311.593, 486.457 303.157, 482.418 301.607 C 479.162 300.357, 476.648 301.162, 463.986 307.507 C 456.844 311.086, 450.980 313.899, 450.955 313.757 C 450.931 313.616, 449.847 306.800, 448.546 298.610 C 446.907 288.287, 445.587 282.920, 444.242 281.110 C 441.976 278.061, 437.295 277.067, 436.384 279.440 M 520 287.500 C 520 288.325, 519.409 289, 518.687 289 C 517.965 289, 516.165 290.262, 514.687 291.805 L 512 294.609 512 314.805 L 512 335 515.500 335 C 518.917 335, 519 334.905, 519 331 L 519 327 523 327 L 527 327 527 308.434 C 527 297.549, 526.572 289.068, 525.965 287.934 C 524.722 285.611, 520 285.267, 520 287.500 M 401.027 289.750 C 398.070 291.262, 393.029 294.987, 389.825 298.027 C 382.508 304.969, 382.158 308.428, 388.576 310.390 C 390.034 310.835, 392.560 309.792, 397.054 306.886 C 404.199 302.269, 409.845 300.903, 411.842 303.310 C 412.535 304.145, 413.365 307.970, 413.687 311.810 L 414.273 318.792 407.834 318.275 C 402.636 317.858, 400.634 318.148, 397.447 319.782 C 387.292 324.988, 383.409 335.789, 387.914 346.300 C 391.774 355.305, 398.387 356.367, 411.387 350.069 C 415.849 347.908, 420.720 345.838, 422.210 345.471 C 425.797 344.587, 430 340.600, 430 338.083 C 430 336.975, 428.716 334.591, 427.147 332.785 C 424.347 329.561, 424.283 329.213, 423.672 314 C 423.330 305.475, 422.574 296.833, 421.991 294.795 C 419.672 286.691, 411.060 284.618, 401.027 289.750 M 274.901 293.006 C 271.076 299.223, 268.385 301.276, 265.845 299.917 C 264.432 299.161, 264 297.768, 264 293.965 C 264 287.789, 262.740 287.623, 257.961 293.173 C 253.871 297.921, 252 297.669, 252 292.368 C 252 289.561, 251.648 288.920, 250.250 289.185 C 248.115 289.590, 247.226 297.362, 249.061 299.574 C 250.667 301.508, 255.927 301.376, 258.171 299.345 C 259.809 297.863, 260 297.856, 260 299.272 C 260 302.048, 265.093 305.231, 268.457 304.559 C 273.814 303.487, 282.117 293.354, 280.688 289.631 C 279.637 286.890, 278.120 287.775, 274.901 293.006 M 349.927 302.977 C 344.673 305.755, 339.490 312.010, 337.515 317.955 C 333.962 328.651, 337.558 343.212, 344.771 347.338 C 347.756 349.045, 348.612 349.096, 354.547 347.916 C 362.535 346.328, 364.039 347.352, 364.761 354.869 C 365.456 362.096, 364.332 366.552, 360.802 370.572 C 357.049 374.847, 353.379 376.866, 345.608 378.933 C 338.124 380.924, 336.656 382.931, 340.033 386.561 C 344.067 390.897, 346.519 391.341, 353.952 389.083 C 369.098 384.483, 376.921 370.917, 374.808 352.919 C 373.699 343.474, 367.240 315.396, 365.317 311.660 C 364.513 310.098, 364.123 308.122, 364.450 307.269 C 364.778 306.416, 364.350 304.657, 363.500 303.359 C 361.545 300.376, 355.186 300.197, 349.927 302.977 M 270.098 315.401 L 262.746 322.803 253.877 316.697 C 246.721 311.772, 244.765 310.838, 243.754 311.864 C 242.746 312.887, 243.088 313.621, 245.500 315.609 C 250.518 319.745, 262.060 328, 262.825 328 C 264.360 328, 280 311.362, 280 309.729 C 280 306.524, 277.485 307.965, 270.098 315.401 M 349.616 320.657 C 346.573 323.700, 345.717 326.301, 346.176 331.112 C 346.451 333.989, 346.924 334.549, 349.315 334.823 C 352.529 335.191, 356.395 332.999, 358.079 329.853 C 360.112 326.053, 356.459 318, 352.702 318 C 352.466 318, 351.077 319.195, 349.616 320.657 M 401.595 332.527 C 398.179 334.308, 396.076 336.828, 396.032 339.191 C 395.974 342.244, 397.972 342.202, 404.782 339.006 L 411.500 335.853 408.694 333.426 C 405.395 330.573, 405.353 330.568, 401.595 332.527 M 256.350 365.250 C 254.040 369.662, 253.365 395.431, 254.914 420.057 C 256.854 450.895, 258.372 457, 264.096 457 C 268.065 457, 268.404 454.865, 267.062 438.318 C 266.446 430.718, 265.669 411, 265.337 394.500 C 264.988 377.237, 264.312 363.969, 263.743 363.250 C 261.823 360.821, 258.148 361.815, 256.350 365.250 M 421.886 369.351 C 421.093 371.090, 421.229 374.310, 422.407 381.721 C 424.826 396.932, 425.054 396.140, 417.470 398.860 C 409.230 401.815, 400.878 409.133, 398.430 415.545 C 396.201 421.381, 397.013 428.409, 400.708 435.250 C 402.935 439.375, 404.597 440.992, 408.920 443.240 C 414.105 445.936, 414.862 446.047, 426.315 445.779 C 437.911 445.509, 438.350 445.418, 440.235 442.890 C 442.177 440.286, 442.173 440.220, 438.515 415.390 C 433.748 383.037, 431.402 370.189, 429.941 368.428 C 427.988 366.076, 423.124 366.633, 421.886 369.351 M 219.914 375.771 C 216.386 379.495, 210.278 386.357, 206.341 391.021 C 202.403 395.684, 196.665 401.899, 193.591 404.830 C 190.516 407.762, 188.014 410.687, 188.031 411.330 C 188.106 414.117, 193.511 420.754, 208.487 436.444 C 224.326 453.039, 228.098 456.187, 231 455.232 C 233.468 454.421, 236 451.800, 236 450.058 C 236 449.160, 228.574 440.718, 219.499 431.298 C 207.142 418.474, 203.162 413.740, 203.655 412.457 C 204.017 411.514, 209.444 404.838, 215.715 397.621 C 228.332 383.101, 233.739 374.250, 231.989 370.980 C 230.015 367.291, 226.701 368.606, 219.914 375.771 M 291.200 370.200 C 290.540 370.860, 290 371.948, 290 372.618 C 290 375.975, 296.017 384.858, 306.525 397.016 C 312.935 404.432, 318.609 411.294, 319.132 412.263 C 319.921 413.724, 317.249 416.934, 303.542 430.986 C 285.632 449.349, 284.588 451.144, 289.978 454.328 C 292.540 455.841, 293.308 455.902, 295.476 454.767 C 298.582 453.139, 332 418.412, 332 416.812 C 332 416.177, 332.734 414.846, 333.632 413.854 C 335.142 412.186, 335.137 411.859, 333.574 409.472 C 332.644 408.053, 331.231 406.642, 330.433 406.336 C 329.635 406.030, 323.727 399.641, 317.305 392.140 C 297.309 368.783, 294.759 366.641, 291.200 370.200 M 561.933 375.125 C 560.404 377.981, 560.665 392.913, 562.583 412.401 C 565.681 443.868, 567.612 451.503, 572.296 450.800 C 576.379 450.187, 576.549 448.126, 574.225 427.295 C 573.011 416.408, 571.520 400.750, 570.913 392.500 C 569.761 376.840, 568.599 373, 565.012 373 C 563.944 373, 562.559 373.956, 561.933 375.125 M 540.261 389.250 C 537.839 391.860, 530.488 403.710, 523.511 416.250 C 520.833 421.063, 518.339 425, 517.968 425 C 517.597 425, 514.999 420.108, 512.194 414.129 C 508.987 407.292, 505.935 402.282, 503.971 400.629 C 500.361 397.591, 499.677 397.466, 497.669 399.474 C 496.371 400.772, 496.482 401.873, 498.602 408.724 C 501.979 419.633, 512.475 440.610, 515.573 442.640 C 519.020 444.898, 522.170 443.326, 525.261 437.805 C 549.189 395.072, 550.520 391.878, 545.777 388.557 C 542.918 386.554, 542.742 386.576, 540.261 389.250 M 603.099 388.993 C 594.224 391.383, 583.934 396.805, 582.366 399.918 C 579.623 405.360, 583.713 408.404, 592.398 407.383 L 597.662 406.764 598.902 416.993 C 600.071 426.641, 600.032 427.342, 598.220 429.360 C 595.011 432.934, 595.060 434.425, 598.577 440.074 C 601.718 445.120, 601.956 446.097, 601.977 454.027 C 602.003 463.876, 603.429 467, 607.896 467 C 612.313 467, 613.158 463.796, 612.379 450.009 L 611.712 438.212 620.242 429.856 C 627.170 423.070, 629.170 420.413, 630.886 415.712 C 638.302 395.407, 625.389 382.990, 603.099 388.993 M 674.305 393.413 C 667.933 396.411, 660.717 402.921, 657.296 408.759 C 655.886 411.164, 654.385 412.765, 653.960 412.316 C 653.535 411.867, 652.674 408.126, 652.046 404.003 C 651.419 399.879, 650.575 396.175, 650.171 395.771 C 649.768 395.368, 648.031 394.756, 646.311 394.412 C 641.887 393.527, 641.031 395.669, 642.153 404.819 C 643.704 417.470, 647.983 439.067, 649.533 442.065 C 651.720 446.292, 654.312 447.377, 657.010 445.193 C 658.744 443.789, 659.497 441.452, 660.596 434.056 C 662.382 422.038, 666.421 414.292, 674.084 408.182 C 683.313 400.825, 688.102 395.699, 687.788 393.512 C 687.345 390.416, 680.781 390.368, 674.305 393.413 M 464.120 395.179 C 457.293 396.365, 451.979 400.632, 448.908 407.395 C 444.669 416.730, 448.427 432.085, 456.600 438.822 C 463.350 444.385, 472.259 444.953, 480.186 440.323 C 484.048 438.068, 490.344 428.060, 489.418 425.647 C 488.725 423.841, 484.493 423.393, 483.488 425.019 C 482.164 427.162, 472.923 431, 469.089 431 C 464.725 431, 459.113 427.244, 460.391 425.177 C 460.782 424.544, 463.666 423.309, 466.801 422.433 C 477.844 419.346, 481.014 417.771, 484.151 413.810 C 486.579 410.744, 487.108 409.290, 486.643 406.963 C 484.874 398.122, 475.480 393.206, 464.120 395.179 M 606.780 402.152 C 604.065 403.145, 604.063 403.152, 606.017 405.249 C 607.094 406.405, 608.239 408.959, 608.562 410.925 C 608.885 412.891, 609.456 416.244, 609.832 418.376 L 610.514 422.252 614.919 418.876 C 619.972 415.003, 623.475 409.072, 622.508 406.026 C 621.166 401.797, 613.151 399.823, 606.780 402.152 M 464.079 409.404 C 463.097 410.588, 463.484 410.680, 466.536 409.992 C 471.288 408.920, 472.098 408, 468.289 408 C 466.615 408, 464.720 408.632, 464.079 409.404 M 416.457 413.863 C 411.889 416.649, 408 421.765, 408 424.988 C 408 426.948, 408.986 428.652, 411.198 430.513 C 414.116 432.969, 414.987 433.170, 421.179 432.820 C 424.910 432.609, 428.464 431.936, 429.075 431.325 C 430.608 429.792, 428.453 416.159, 426.302 413.781 C 424.225 411.486, 420.302 411.518, 416.457 413.863 M 229.108 468.042 C 215.667 471.107, 212.949 474.255, 219.203 479.517 C 222.125 481.976, 222.902 482.156, 228.052 481.574 C 232.635 481.055, 234.114 481.272, 235.906 482.723 C 238.062 484.469, 238.138 485.284, 239.105 516.910 C 239.650 534.730, 239.887 549.853, 239.632 550.517 C 239.330 551.303, 235.627 551.895, 229.019 552.213 C 218.080 552.740, 215.230 553.999, 216.428 557.774 C 216.777 558.872, 218.853 561.012, 221.041 562.528 C 224.845 565.165, 225.376 565.256, 233.123 564.610 C 244.722 563.643, 247.795 561.688, 250.044 553.845 C 250.910 550.825, 249.541 499.902, 248.117 482.166 C 247.397 473.200, 246.970 471.521, 244.893 469.478 C 241.491 466.130, 238.633 465.870, 229.108 468.042 M 285.325 467.952 C 278.166 469.074, 272.699 471.939, 271.873 475 C 270.025 481.858, 271.842 548.962, 274.059 555.678 C 275.777 560.886, 279.281 563, 286.192 563 C 294.452 563, 300.083 561.363, 303.812 557.878 C 307.028 554.872, 307.690 552.638, 306.106 550.137 C 305.383 548.996, 303.509 548.979, 294.602 550.035 C 288.750 550.728, 283.776 551.109, 283.549 550.882 C 283.321 550.654, 282.812 535.567, 282.418 517.355 L 281.700 484.243 284.202 482.603 C 285.579 481.701, 288.922 480.388, 291.633 479.685 C 296.558 478.408, 303 473.745, 303 471.457 C 303 468.053, 294.915 466.450, 285.325 467.952" stroke="none" fill="currentColor" fill-rule="evenodd"/>
</svg>