<?xml version="1.0" standalone="no"?>
<!DOCTYPE svg PUBLIC "-//W3C//DTD SVG 20010904//EN"
 "http://www.w3.org/TR/2001/REC-SVG-20010904/DTD/svg10.dtd">
<svg version="1.0" xmlns="http://www.w3.org/2000/svg"
 width="537.000000pt" height="515.000000pt" viewBox="0 0 537.000000 515.000000"
 preserveAspectRatio="xMidYMid meet">

<g transform="translate(0.000000,515.000000) scale(0.100000,-0.100000)"
fill="#fff" stroke="none">
<path d="M3989 4236 c-4 -5 -590 -21 -664 -19 -22 1 -121 -5 -220 -13 -99 -8
-272 -16 -385 -18 -113 -3 -245 -9 -295 -14 -49 -6 -99 -10 -110 -10 -11 1
-65 -4 -120 -10 -141 -16 -628 -35 -696 -28 -83 10 -231 -35 -288 -87 -87 -81
-163 -322 -181 -577 -6 -85 -20 -222 -31 -305 -11 -82 -24 -199 -29 -260 -6
-60 -15 -146 -20 -190 -6 -44 -14 -150 -19 -236 -4 -85 -11 -161 -15 -167 -4
-7 -18 -12 -32 -12 -39 0 -100 -36 -122 -72 -26 -42 -77 -203 -92 -288 -25
-144 -28 -229 -13 -353 7 -67 18 -165 23 -217 16 -167 54 -342 81 -376 6 -7 3
-26 -6 -49 -39 -92 44 -187 149 -170 76 13 123 43 151 99 30 60 32 100 5 143
-14 23 -29 34 -55 39 -35 6 -128 0 -157 -11 -29 -11 -67 112 -88 285 -6 52
-16 126 -21 165 -24 171 -23 273 4 410 32 162 68 261 108 298 50 46 54 40 54
-96 1 -119 16 -347 36 -537 8 -79 17 -109 51 -180 63 -128 86 -158 141 -187
62 -31 203 -43 527 -43 124 0 312 -6 418 -14 123 -9 253 -12 357 -9 140 5 165
4 165 -8 0 -8 -5 -20 -11 -26 -6 -6 -15 -79 -20 -165 -5 -85 -12 -187 -17
-228 l-7 -75 -78 4 c-72 3 -80 1 -115 -25 -56 -43 -66 -54 -99 -114 -39 -70
-48 -113 -33 -151 21 -50 59 -62 169 -55 165 12 254 58 236 123 -10 36 -7 165
6 273 5 47 12 137 14 200 6 143 13 208 26 232 8 16 23 18 109 18 l100 0 1
-102 c1 -57 2 -125 3 -153 1 -27 -10 -108 -25 -180 -15 -71 -30 -152 -34 -180
-3 -27 -13 -76 -22 -107 -15 -55 -15 -59 3 -79 17 -19 27 -20 89 -16 66 4 260
38 305 52 23 7 33 39 34 107 1 42 -3 52 -37 85 -36 37 -40 38 -120 41 -59 3
-94 -1 -120 -12 -20 -8 -37 -11 -37 -6 0 5 10 48 22 97 18 72 22 114 21 229 0
77 -6 158 -12 179 -6 21 -8 41 -5 44 2 3 155 -1 340 -8 260 -10 405 -10 647
-2 378 14 426 20 516 61 76 35 185 136 195 181 26 112 36 237 42 487 4 155 10
282 12 282 3 0 24 -9 47 -20 30 -14 47 -32 63 -65 24 -50 46 -198 46 -310 0
-141 -66 -412 -129 -530 -18 -33 -45 -97 -60 -142 -28 -81 -28 -81 -71 -92
-86 -22 -131 -148 -85 -239 25 -50 51 -65 107 -64 89 1 194 78 194 143 0 50
-24 94 -60 109 -31 13 -32 14 -25 59 3 25 35 112 71 193 82 188 134 399 134
544 0 119 -28 304 -54 354 -30 59 -93 104 -146 105 -36 0 -40 3 -40 25 -1 55
-12 196 -30 402 -11 119 -20 266 -20 325 0 59 -4 158 -10 218 -6 61 -15 162
-21 225 -6 63 -25 183 -44 265 -18 83 -36 168 -40 190 -9 54 -42 149 -73 210
-70 139 -127 171 -354 195 -113 12 -104 11 -109 6z m236 -91 c84 -19 109 -35
156 -105 49 -73 71 -141 118 -375 54 -269 69 -414 91 -835 6 -113 15 -239 20
-281 26 -220 34 -469 21 -741 -13 -289 -27 -399 -61 -453 -24 -39 -87 -98
-127 -119 -49 -25 -148 -46 -219 -46 -38 0 -98 -5 -134 -10 -60 -8 -211 -17
-415 -24 -44 -1 -243 2 -442 8 -200 6 -499 8 -665 5 -226 -5 -350 -3 -488 8
-102 8 -336 18 -520 22 l-335 7 -52 28 c-66 36 -71 42 -128 151 l-48 89 -8
151 c-4 82 -13 190 -19 239 -26 192 14 817 80 1276 16 107 32 240 35 295 8
117 38 289 64 360 86 237 162 278 491 268 113 -4 231 0 375 12 116 10 237 18
270 19 33 2 94 8 135 15 42 7 151 12 248 12 95 -1 212 3 260 9 304 37 1158 47
1297 15z m-3237 -3181 c35 -11 -18 -113 -68 -129 -30 -9 -90 20 -90 44 0 12 7
21 15 21 31 0 65 23 65 45 0 35 15 39 78 19z m3727 -156 c0 -25 -7 -37 -34
-55 -51 -35 -85 -31 -106 12 -14 30 -14 42 -5 73 20 61 34 66 94 32 45 -26 51
-33 51 -62z m-2207 -254 c20 -6 22 -12 22 -79 0 -55 -4 -76 -17 -86 -19 -17
-190 -26 -204 -12 -11 11 15 84 41 119 40 53 97 74 158 58z m623 -40 c13 -12
19 -28 17 -48 -3 -27 -8 -31 -53 -43 -78 -19 -181 -27 -189 -14 -4 6 -4 31 -1
55 6 39 11 46 43 60 50 21 155 15 183 -10z"/>
<path d="M2034 4031 c-27 -12 -54 -54 -54 -84 0 -14 9 -36 21 -51 l20 -26 -23
0 c-22 1 -503 -66 -544 -75 -22 -5 -34 -35 -54 -140 -6 -33 -15 -78 -20 -100
-5 -22 -12 -78 -15 -125 -4 -47 -13 -113 -21 -148 -20 -90 -46 -384 -69 -797
-8 -143 -19 -287 -25 -320 -13 -81 -13 -579 1 -629 13 -45 79 -120 129 -146
88 -44 235 -58 840 -80 124 -4 259 -13 300 -20 83 -14 484 -7 619 11 42 5 103
12 136 14 33 2 109 10 169 16 67 7 179 10 290 6 165 -5 432 9 546 29 60 11 93
38 131 111 49 91 65 223 55 461 -14 362 -25 559 -35 605 -24 111 -42 310 -37
405 3 55 6 103 7 108 11 42 -31 358 -59 449 -6 17 -15 57 -22 90 -7 33 -16 74
-20 90 -5 17 -11 42 -14 57 -7 33 -71 71 -216 128 -125 50 -305 77 -555 83
-233 6 -939 -30 -1055 -53 -30 -6 -119 -13 -198 -15 l-143 -4 21 26 c25 32 26
74 3 102 -20 24 -77 35 -109 22z m1821 -165 c44 -8 103 -22 130 -31 49 -17
199 -89 222 -107 6 -5 23 -62 38 -126 15 -64 35 -148 45 -187 26 -97 43 -276
41 -425 -2 -68 -4 -128 -7 -132 -3 -4 0 -35 5 -70 6 -35 15 -99 21 -143 5 -44
17 -130 25 -190 12 -80 16 -211 18 -475 2 -321 0 -372 -15 -420 -25 -80 -67
-125 -131 -143 -72 -20 -340 -40 -467 -34 -111 4 -237 -2 -545 -27 -259 -21
-655 -30 -725 -16 -30 6 -246 17 -480 24 -463 15 -545 25 -635 75 -38 21 -56
40 -74 77 -25 49 -25 51 -25 339 -1 189 4 311 11 350 7 33 17 150 23 260 6
110 18 270 26 355 9 85 22 223 28 305 7 83 18 162 24 176 6 14 13 84 17 155 4
71 12 134 17 141 5 6 12 37 15 67 5 51 8 56 37 65 17 5 58 13 91 17 33 4 73
13 90 20 17 7 64 15 105 19 41 3 98 10 125 15 28 5 156 14 285 20 129 6 303
18 385 25 83 8 236 19 340 25 105 6 215 12 245 14 134 8 618 -4 695 -18z"/>
<path d="M3178 3453 c-45 -22 -104 -89 -144 -163 -85 -156 -126 -476 -81 -624
15 -48 30 -71 78 -118 106 -103 165 -119 316 -83 27 6 113 79 134 115 9 15 29
62 45 106 27 76 28 86 28 269 0 165 -3 201 -22 270 -51 182 -101 232 -246 241
-54 3 -80 0 -108 -13z m183 -86 c42 -28 86 -113 100 -192 45 -267 16 -519 -69
-597 -100 -91 -188 -90 -299 6 -62 54 -85 123 -82 245 6 227 73 443 160 512
66 52 137 62 190 26z"/>
<path d="M3228 3073 c-68 -52 -91 -121 -63 -189 30 -75 117 -112 164 -70 37
34 53 168 27 231 -26 60 -73 71 -128 28z"/>
<path d="M2381 3430 c-115 -28 -188 -152 -236 -402 -35 -185 2 -456 74 -525
50 -48 108 -67 200 -65 87 2 143 23 182 68 28 33 68 110 78 150 6 22 26 102
46 179 35 132 36 146 31 249 -8 148 -37 214 -120 272 -32 21 -72 46 -89 56
-40 20 -121 29 -166 18z m109 -96 c30 -14 71 -33 90 -42 26 -13 43 -32 65 -76
26 -52 29 -70 29 -150 1 -95 -19 -206 -59 -338 -50 -165 -88 -209 -187 -216
-80 -6 -133 12 -159 54 -30 50 -59 209 -59 327 0 104 26 228 65 322 34 80 90
132 155 144 3 1 30 -11 60 -25z"/>
<path d="M2435 3111 c-64 -27 -106 -156 -76 -234 12 -31 54 -73 81 -82 61 -19
123 56 135 161 8 77 -9 115 -65 144 -43 22 -46 22 -75 11z"/>
<path d="M3260 2191 c-14 -27 -134 -123 -187 -150 -33 -16 -43 -27 -43 -45 0
-25 23 -56 42 -56 17 0 235 -107 242 -119 12 -19 54 -13 66 10 17 31 6 47 -52
72 -110 49 -168 81 -167 91 0 6 38 43 85 81 75 62 84 73 82 100 -3 24 -8 31
-30 33 -19 2 -30 -3 -38 -17z"/>
<path d="M2760 2018 c-47 -4 -146 -12 -220 -16 -107 -5 -135 -10 -135 -21 0
-26 55 -32 294 -34 184 -2 237 1 248 11 19 20 16 39 -9 56 -24 17 -48 18 -178
4z"/>
<path d="M1553 4000 c-53 -32 -57 -104 -8 -136 30 -20 68 -12 100 20 20 20 22
28 15 66 -13 69 -49 86 -107 50z"/>
<path d="M1774 4005 c-35 -16 -59 -62 -49 -95 4 -12 22 -28 41 -36 32 -13 39
-13 79 5 93 41 80 144 -18 140 -12 0 -36 -7 -53 -14z"/>
</g>
</svg>
